<?xml version="1.0" encoding="UTF-8"?><svg id="Layer_2" xmlns="http://www.w3.org/2000/svg"  fill="#FFFFFF" viewBox="0 0 436.37 124.17"><g id="Layer_1-2"><path d="m60.36,78.22c0,1.58-.79,2.37-2.37,2.37h-9.85c-.37,0-.84-.15-1.41-.46-.58-.3-.75-.46-.5-.46l-15.87-19.51-16.69,19.51c-.55.61-1.18.91-1.91.91H2.37c-1.58,0-2.37-.79-2.37-2.37V22.6c0-1.64.79-2.46,2.37-2.46h7.29c1.58,0,2.37.82,2.37,2.46v40.3l16.96-17.87c.49-.61,1.06-.91,1.73-.91.73,0,1.37.33,1.92,1l15.68,17.33V22.6c0-1.64.79-2.46,2.37-2.46h7.29c1.58,0,2.37.82,2.37,2.46v55.62Z" stroke-width="0"/><path d="m100.56,101.9c0,4.86-1.75,8.92-5.24,12.17-3.5,3.25-7.77,4.88-12.81,4.88h-24.07c-4.99,0-9.24-1.75-12.77-5.24-3.53-3.5-5.29-7.71-5.29-12.63s1.76-9.24,5.29-12.77,7.78-5.29,12.77-5.29h28.08c1.34,0,2.01-.67,2.01-2.01v-4.65c0-1.88-.59-3.52-1.78-4.92-1.19-1.4-2.6-2.1-4.24-2.1h-15.04c-.73,0-1.41-.3-2.05-.91-.64-.61-.96-1.28-.96-2.01v-4.92c0-.67.33-1.34,1-2.01s1.34-1,2.01-1h15.04c4.98,0,9.24,1.78,12.77,5.33,3.52,3.56,5.29,7.8,5.29,12.72v25.35Zm-12.04,0v-5.83c0-1.34-.67-2.01-2.01-2.01h-28.08c-1.64,0-3.05.68-4.24,2.05-1.19,1.37-1.78,3.03-1.78,4.97s.59,3.53,1.78,4.92c1.19,1.4,2.6,2.1,4.24,2.1h24.07c1.7,0,3.13-.56,4.29-1.69,1.15-1.12,1.73-2.63,1.73-4.51Z" stroke-width="0"/><path d="m151.53,72.67c0,4.92-1.78,9.12-5.34,12.58-3.56,3.46-7.84,5.2-12.84,5.2h-27.86c-1.58,0-2.38-.82-2.38-2.46v-6.02c0-1.58.79-2.37,2.38-2.37h27.95c1.65,0,3.07-.68,4.26-2.05,1.19-1.37,1.79-2.99,1.79-4.88s-.59-3.6-1.78-4.97c-1.19-1.37-2.6-2.05-4.25-2.05h-24.21c-5.06,0-9.35-1.73-12.88-5.2-3.53-3.46-5.3-7.66-5.3-12.58s1.76-9.13,5.29-12.63c3.53-3.49,7.81-5.24,12.86-5.24h30.57c1.64,0,2.46.82,2.46,2.44v5.97c0,1.63-.82,2.44-2.46,2.44h-30.57c-1.7,0-3.13.67-4.29,2.02-1.16,1.35-1.73,3-1.73,4.96s.58,3.53,1.73,4.91c1.15,1.38,2.58,2.06,4.29,2.06h24.16c4.98,0,9.25,1.75,12.81,5.24,3.56,3.5,5.33,7.71,5.33,12.63Z" stroke-width="0"/><path d="m200.33,63.97c0,4.92-1.76,9.12-5.29,12.58-3.53,3.46-7.81,5.2-12.86,5.2h-10.14c-4.99,0-9.24-1.73-12.77-5.2-3.53-3.46-5.29-7.66-5.29-12.58v-22.89h-6.29c-1.64,0-2.46-.79-2.46-2.37v-6.11c0-1.58.82-2.37,2.46-2.37h6.29v-6.47c0-1.64.79-2.46,2.37-2.46h7.29c1.58,0,2.37.82,2.37,2.46v6.47h24.94c1.58,0,2.37.79,2.37,2.37v6.11c0,1.58-.79,2.37-2.37,2.37h-24.94v22.89c0,1.89.59,3.51,1.78,4.88,1.19,1.37,2.6,2.05,4.24,2.05h10.14c1.7,0,3.15-.68,4.33-2.05,1.19-1.37,1.78-2.99,1.78-4.88v-3.74c0-1.58.79-2.37,2.37-2.37h7.29c1.58,0,2.37.79,2.37,2.37v3.74Z" stroke-width="0"/><path d="m436.37,70.44c0,4.92-1.76,9.12-5.29,12.58-3.53,3.46-7.81,5.2-12.86,5.2h-10.14c-4.99,0-9.24-1.73-12.77-5.2-3.53-3.46-5.29-7.66-5.29-12.58v-22.89h-6.29c-1.64,0-2.46-.79-2.46-2.37v-6.11c0-1.58.82-2.37,2.46-2.37h6.29v-6.47c0-1.64.79-2.46,2.37-2.46h7.29c1.58,0,2.37.82,2.37,2.46v6.47h24.94c1.58,0,2.37.79,2.37,2.37v6.11c0,1.58-.79,2.37-2.37,2.37h-24.94v22.89c0,1.89.59,3.51,1.78,4.88,1.19,1.37,2.6,2.05,4.24,2.05h10.14c1.7,0,3.15-.68,4.33-2.05,1.19-1.37,1.78-2.99,1.78-4.88v-3.74c0-1.58.79-2.37,2.37-2.37h7.29c1.58,0,2.37.79,2.37,2.37v3.74Z" stroke-width="0"/><path d="m251.84,51.71c0,4.92-1.78,9.12-5.34,12.58-3.56,3.46-7.84,5.2-12.84,5.2h-15.86c-1.58,0-2.38.82-2.38,2.46v4.56c0,1.89.58,3.51,1.74,4.88,1.16,1.37,2.6,2.05,4.31,2.05h42.95c1.59,0,2.38.79,2.38,2.37v6.02c0,1.64-.79,2.46-2.38,2.46h-42.86c-5.06,0-9.35-1.73-12.88-5.2-3.53-3.46-5.3-7.66-5.3-12.58v-24.8c0-4.92,1.76-9.13,5.29-12.63,3.53-3.49,7.81-5.24,12.86-5.24h12.16c4.98,0,9.25,1.75,12.81,5.24,3.56,3.5,5.33,7.71,5.33,12.63Zm-12.13-.04c0-1.96-.59-3.61-1.78-4.96-1.19-1.35-2.61-2.02-4.25-2.02h-12.22c-1.71,0-3.14.67-4.3,2.02-1.16,1.35-1.74,3-1.74,4.96v4.59c0,1.59.79,2.39,2.38,2.39h15.88c1.65,0,3.06-.69,4.25-2.06,1.19-1.38,1.78-3.01,1.78-4.91Z" stroke-width="0"/><path d="m309.98,85.76c0,1.64-.79,2.46-2.37,2.46h-7.29c-1.58,0-2.37-.82-2.37-2.47v-40.2c0-1.95-.59-3.59-1.78-4.93-1.18-1.34-2.6-2.01-4.24-2.01h-19.25c-1.64,0-3.05.67-4.24,2.01-1.19,1.34-1.78,2.98-1.78,4.93v33.2c0,1.64-.79,2.47-2.37,2.47h-7.29c-1.58,0-2.37-.82-2.37-2.46v-33.3c0-4.86,1.76-9.03,5.29-12.49,3.52-3.46,7.78-5.2,12.77-5.2h19.25c4.98,0,9.24,1.73,12.77,5.2,3.52,3.46,5.29,7.63,5.29,12.49v40.3Z" stroke-width="0"/><path d="m376.77,68.88c0,4.92-1.78,9.12-5.33,12.58s-7.83,5.2-12.81,5.2h-24.16c-5.05,0-9.33-1.73-12.86-5.2-3.53-3.46-5.29-7.66-5.29-12.58v-24.98c0-4.86,1.78-9.03,5.33-12.49,3.56-3.46,7.83-5.2,12.81-5.2h24.16c4.98,0,9.25,1.73,12.81,5.2s5.33,7.63,5.33,12.49v24.98Zm-12.04-.02v-24.86c0-1.95-.6-3.59-1.79-4.93-1.19-1.34-2.61-2.01-4.26-2.01h-24.29c-1.71,0-3.15.67-4.31,2.01-1.16,1.34-1.74,2.98-1.74,4.93v24.86c0,1.89.58,3.52,1.74,4.89,1.16,1.37,2.6,2.06,4.31,2.06h24.29c1.65,0,3.07-.69,4.26-2.06,1.19-1.37,1.79-3,1.79-4.89Z" stroke-width="0"/><circle cx="339.65" cy="54.82" r="4.09" fill="#FFFFFF" stroke="#FFFFFF" stroke-miterlimit="10" stroke-width="4"/><circle cx="354.1" cy="54.86" r="4.09" fill="#FFFFFF" stroke="#FFFFFF" stroke-miterlimit="10" stroke-width="4"/><line x1="350.36" y1="28.89" x2="350.36" y2="3.43" fill="#FFFFFF" stroke="#FFFFFF" stroke-miterlimit="10" stroke-width="3"/><path d="m353.97,3.61c0-1.99-1.62-3.61-3.61-3.61s-3.61,1.62-3.61,3.61,1.62,3.61,3.61,3.61,3.61-1.62,3.61-3.61Z" stroke-width="0"/><path d="m357.78,28.6v-13.11c0-1.46,1.18-2.64,2.64-2.64h8.48" fill="#FFFFFF" stroke="#FFFFFF" stroke-miterlimit="10" stroke-width="3"/><circle cx="368.73" cy="12.84" r="3.61" stroke-width="0"/><path d="m335.27,27.43v-3.14c0-1.33-1.08-2.4-2.4-2.4h-11.97" fill="#FFFFFF" stroke="#FFFFFF" stroke-miterlimit="10" stroke-width="3"/><path d="m321.08,18.28c-1.99,0-3.61,1.62-3.61,3.61s1.62,3.61,3.61,3.61,3.61-1.62,3.61-3.61-1.62-3.61-3.61-3.61Z" stroke-width="0"/><path d="m343.65,27.72l-.24-7.44c-.03-1.02-.5-1.98-1.28-2.64l-8.99-7.56" fill="#FFFFFF" stroke="#FFFFFF" stroke-miterlimit="10" stroke-width="3"/><path d="m335.6,7.44c-1.53-1.28-3.8-1.09-5.09.44-1.28,1.53-1.09,3.8.44,5.09,1.53,1.28,3.8,1.09,5.09-.44,1.28-1.53,1.09-3.8-.44-5.09Z" stroke-width="0"/><path d="m289.49,99.81c-.28.61,0,1.33.6,1.6l7.76,3.51c1.04.47,1.66,1.49,1.67,2.56l-10.11-4.58c-.61-.28-1.33,0-1.6.6s0,1.33.6,1.6l10.11,4.58c-.82.69-1.99.9-3.03.43l-7.76-3.51c-.61-.28-1.33,0-1.6.6s0,1.33.6,1.6l7.76,3.51c2.27,1.03,4.9.31,6.36-1.59l5.03,2.27-.66,1.46c-.28.61,0,1.33.6,1.6l15.66,7.09c2.02.91,4.41.01,5.32-2.01s.01-4.41-2.01-5.32l-15.66-7.09c-.61-.28-1.33,0-1.6.6l-.66,1.46-5.03-2.27c.46-2.35-.73-4.8-3-5.82l-7.76-3.51c-.61-.28-1.33,0-1.6.6h0Zm19.76,11.65l14.55,6.59c.8.36,1.16,1.31.8,2.12s-1.31,1.16-2.12.8l-14.55-6.59,1.32-2.91h0Z" stroke="#FFFFFF" stroke-miterlimit="10" stroke-width=".5"/><path d="m408.44,103.87h0s-2.26-3.51-2.26-3.51c-1.68-2.54-5.14-3.29-7.72-1.67l-28.93,18.22c-1.77,1.12-2.31,3.47-1.19,5.24s3.47,2.31,5.24,1.19l9.67-6.09,1.12,1.78c.36.57,1.1.74,1.67.38l22.02-13.87c.27-.17.47-.45.54-.76.07-.31.01-.64-.16-.91h0Zm-36.16,17.42c-.64.4-1.49.21-1.9-.43s-.21-1.49.43-1.9l9.67-6.09,1.47,2.33-9.67,6.09h0Zm13.49-4.58l-3.23-5.14,17.21-10.84c1.47-.93,3.45-.5,4.4.94l1.59,2.46-19.96,12.57h0Z" stroke="#FFFFFF" stroke-miterlimit="10" stroke-width=".5"/><line x1="347.46" y1="78.27" x2="347.46" y2="97.78" fill="#FFFFFF" stroke="#FFFFFF" stroke-miterlimit="10" stroke-width="3"/><path d="m325.93,119.31v-14.3c0-4.72,3.86-8.57,8.57-8.57h25.91c4.72,0,8.57,3.86,8.57,8.57v14.3" fill="#FFFFFF" stroke="#FFFFFF" stroke-linecap="round" stroke-miterlimit="10" stroke-width="3"/></g></svg>